<svg width="261" height="63" viewBox="0 0 261 63" fill="none" xmlns="http://www.w3.org/2000/svg">
<rect x="0.0168457" width="260.17" height="63" rx="6" fill="url(#paint0_linear_1290_6)" fill-opacity="0.6"/>
<rect x="0.0168457" width="260.17" height="63" rx="6" fill="url(#paint1_linear_1290_6)" fill-opacity="0.5"/>
<path d="M87.5403 24.084H81.2403L79.9983 27H77.5863L83.2563 14.4H85.5603L91.2483 27H88.8003L87.5403 24.084ZM86.7663 22.248L84.3903 16.74L82.0323 22.248H86.7663ZM101.143 17.388L97.0206 27H94.6986L90.5766 17.388H92.9166L95.9046 24.516L98.9826 17.388H101.143ZM105.922 17.28C107.338 17.28 108.418 17.622 109.162 18.306C109.918 18.978 110.296 19.998 110.296 21.366V27H108.172V25.83C107.896 26.25 107.5 26.574 106.984 26.802C106.48 27.018 105.868 27.126 105.148 27.126C104.428 27.126 103.798 27.006 103.258 26.766C102.718 26.514 102.298 26.172 101.998 25.74C101.71 25.296 101.566 24.798 101.566 24.246C101.566 23.382 101.884 22.692 102.52 22.176C103.168 21.648 104.182 21.384 105.562 21.384H108.046V21.24C108.046 20.568 107.842 20.052 107.434 19.692C107.038 19.332 106.444 19.152 105.652 19.152C105.112 19.152 104.578 19.236 104.05 19.404C103.534 19.572 103.096 19.806 102.736 20.106L101.854 18.468C102.358 18.084 102.964 17.79 103.672 17.586C104.38 17.382 105.13 17.28 105.922 17.28ZM105.616 25.488C106.18 25.488 106.678 25.362 107.11 25.11C107.554 24.846 107.866 24.474 108.046 23.994V22.878H105.724C104.428 22.878 103.78 23.304 103.78 24.156C103.78 24.564 103.942 24.888 104.266 25.128C104.59 25.368 105.04 25.488 105.616 25.488ZM113.184 17.388H115.434V27H113.184V17.388ZM114.318 15.804C113.91 15.804 113.568 15.678 113.292 15.426C113.016 15.162 112.878 14.838 112.878 14.454C112.878 14.07 113.016 13.752 113.292 13.5C113.568 13.236 113.91 13.104 114.318 13.104C114.726 13.104 115.068 13.23 115.344 13.482C115.62 13.722 115.758 14.028 115.758 14.4C115.758 14.796 115.62 15.132 115.344 15.408C115.08 15.672 114.738 15.804 114.318 15.804ZM118.387 13.644H120.637V27H118.387V13.644ZM127.262 17.28C128.678 17.28 129.758 17.622 130.502 18.306C131.258 18.978 131.636 19.998 131.636 21.366V27H129.512V25.83C129.236 26.25 128.84 26.574 128.324 26.802C127.82 27.018 127.208 27.126 126.488 27.126C125.768 27.126 125.138 27.006 124.598 26.766C124.058 26.514 123.638 26.172 123.338 25.74C123.05 25.296 122.906 24.798 122.906 24.246C122.906 23.382 123.224 22.692 123.86 22.176C124.508 21.648 125.522 21.384 126.902 21.384H129.386V21.24C129.386 20.568 129.182 20.052 128.774 19.692C128.378 19.332 127.784 19.152 126.992 19.152C126.452 19.152 125.918 19.236 125.39 19.404C124.874 19.572 124.436 19.806 124.076 20.106L123.194 18.468C123.698 18.084 124.304 17.79 125.012 17.586C125.72 17.382 126.47 17.28 127.262 17.28ZM126.956 25.488C127.52 25.488 128.018 25.362 128.45 25.11C128.894 24.846 129.206 24.474 129.386 23.994V22.878H127.064C125.768 22.878 125.12 23.304 125.12 24.156C125.12 24.564 125.282 24.888 125.606 25.128C125.93 25.368 126.38 25.488 126.956 25.488ZM139.851 17.28C140.787 17.28 141.621 17.484 142.353 17.892C143.097 18.3 143.679 18.876 144.099 19.62C144.519 20.364 144.729 21.222 144.729 22.194C144.729 23.166 144.519 24.03 144.099 24.786C143.679 25.53 143.097 26.106 142.353 26.514C141.621 26.922 140.787 27.126 139.851 27.126C139.191 27.126 138.585 27.012 138.033 26.784C137.493 26.556 137.037 26.214 136.665 25.758V27H134.523V13.644H136.773V18.558C137.157 18.138 137.607 17.82 138.123 17.604C138.651 17.388 139.227 17.28 139.851 17.28ZM139.599 25.2C140.427 25.2 141.105 24.924 141.633 24.372C142.173 23.82 142.443 23.094 142.443 22.194C142.443 21.294 142.173 20.568 141.633 20.016C141.105 19.464 140.427 19.188 139.599 19.188C139.059 19.188 138.573 19.314 138.141 19.566C137.709 19.806 137.367 20.154 137.115 20.61C136.863 21.066 136.737 21.594 136.737 22.194C136.737 22.794 136.863 23.322 137.115 23.778C137.367 24.234 137.709 24.588 138.141 24.84C138.573 25.08 139.059 25.2 139.599 25.2ZM146.863 13.644H149.113V27H146.863V13.644ZM161.102 22.248C161.102 22.404 161.09 22.626 161.066 22.914H153.524C153.656 23.622 153.998 24.186 154.55 24.606C155.114 25.014 155.81 25.218 156.638 25.218C157.694 25.218 158.564 24.87 159.248 24.174L160.454 25.56C160.022 26.076 159.476 26.466 158.816 26.73C158.156 26.994 157.412 27.126 156.584 27.126C155.528 27.126 154.598 26.916 153.794 26.496C152.99 26.076 152.366 25.494 151.922 24.75C151.49 23.994 151.274 23.142 151.274 22.194C151.274 21.258 151.484 20.418 151.904 19.674C152.336 18.918 152.93 18.33 153.686 17.91C154.442 17.49 155.294 17.28 156.242 17.28C157.178 17.28 158.012 17.49 158.744 17.91C159.488 18.318 160.064 18.9 160.472 19.656C160.892 20.4 161.102 21.264 161.102 22.248ZM156.242 19.08C155.522 19.08 154.91 19.296 154.406 19.728C153.914 20.148 153.614 20.712 153.506 21.42H158.96C158.864 20.724 158.57 20.16 158.078 19.728C157.586 19.296 156.974 19.08 156.242 19.08ZM172.558 27.126C171.586 27.126 170.71 26.916 169.93 26.496C169.15 26.076 168.538 25.494 168.094 24.75C167.662 23.994 167.446 23.142 167.446 22.194C167.446 21.246 167.662 20.4 168.094 19.656C168.538 18.912 169.15 18.33 169.93 17.91C170.71 17.49 171.586 17.28 172.558 17.28C173.542 17.28 174.424 17.49 175.204 17.91C175.984 18.33 176.59 18.912 177.022 19.656C177.466 20.4 177.688 21.246 177.688 22.194C177.688 23.142 177.466 23.994 177.022 24.75C176.59 25.494 175.984 26.076 175.204 26.496C174.424 26.916 173.542 27.126 172.558 27.126ZM172.558 25.2C173.386 25.2 174.07 24.924 174.61 24.372C175.15 23.82 175.42 23.094 175.42 22.194C175.42 21.294 175.15 20.568 174.61 20.016C174.07 19.464 173.386 19.188 172.558 19.188C171.73 19.188 171.046 19.464 170.506 20.016C169.978 20.568 169.714 21.294 169.714 22.194C169.714 23.094 169.978 23.82 170.506 24.372C171.046 24.924 171.73 25.2 172.558 25.2ZM185.294 17.28C186.506 17.28 187.478 17.634 188.21 18.342C188.942 19.05 189.308 20.1 189.308 21.492V27H187.058V21.78C187.058 20.94 186.86 20.31 186.464 19.89C186.068 19.458 185.504 19.242 184.772 19.242C183.944 19.242 183.29 19.494 182.81 19.998C182.33 20.49 182.09 21.204 182.09 22.14V27H179.84V17.388H181.982V18.63C182.354 18.186 182.822 17.85 183.386 17.622C183.95 17.394 184.586 17.28 185.294 17.28ZM202.915 26.478C202.651 26.694 202.327 26.856 201.943 26.964C201.571 27.072 201.175 27.126 200.755 27.126C199.699 27.126 198.883 26.85 198.307 26.298C197.731 25.746 197.443 24.942 197.443 23.886V19.26H195.859V17.46H197.443V15.264H199.693V17.46H202.267V19.26H199.693V23.832C199.693 24.3 199.807 24.66 200.035 24.912C200.263 25.152 200.593 25.272 201.025 25.272C201.529 25.272 201.949 25.14 202.285 24.876L202.915 26.478ZM210.22 17.28C211.432 17.28 212.404 17.634 213.136 18.342C213.868 19.05 214.234 20.1 214.234 21.492V27H211.984V21.78C211.984 20.94 211.786 20.31 211.39 19.89C210.994 19.458 210.43 19.242 209.698 19.242C208.87 19.242 208.216 19.494 207.736 19.998C207.256 20.49 207.016 21.204 207.016 22.14V27H204.766V13.644H207.016V18.504C207.388 18.108 207.844 17.808 208.384 17.604C208.936 17.388 209.548 17.28 210.22 17.28ZM226.212 22.248C226.212 22.404 226.2 22.626 226.176 22.914H218.634C218.766 23.622 219.108 24.186 219.66 24.606C220.224 25.014 220.92 25.218 221.748 25.218C222.804 25.218 223.674 24.87 224.358 24.174L225.564 25.56C225.132 26.076 224.586 26.466 223.926 26.73C223.266 26.994 222.522 27.126 221.694 27.126C220.638 27.126 219.708 26.916 218.904 26.496C218.1 26.076 217.476 25.494 217.032 24.75C216.6 23.994 216.384 23.142 216.384 22.194C216.384 21.258 216.594 20.418 217.014 19.674C217.446 18.918 218.04 18.33 218.796 17.91C219.552 17.49 220.404 17.28 221.352 17.28C222.288 17.28 223.122 17.49 223.854 17.91C224.598 18.318 225.174 18.9 225.582 19.656C226.002 20.4 226.212 21.264 226.212 22.248ZM221.352 19.08C220.632 19.08 220.02 19.296 219.516 19.728C219.024 20.148 218.724 20.712 218.616 21.42H224.07C223.974 20.724 223.68 20.16 223.188 19.728C222.696 19.296 222.084 19.08 221.352 19.08Z" fill="black"/>
<path d="M92.1086 50.2H81.7086L79.7246 55H74.4126L84.3966 32.6H89.5166L99.5326 55H94.0926L92.1086 50.2ZM90.4766 46.264L86.9246 37.688L83.3726 46.264H90.4766ZM112.321 37.528C113.921 37.528 115.371 37.9013 116.673 38.648C117.995 39.3733 119.03 40.408 119.777 41.752C120.523 43.0747 120.897 44.6213 120.897 46.392C120.897 48.1627 120.523 49.72 119.777 51.064C119.03 52.3867 117.995 53.4213 116.673 54.168C115.371 54.8933 113.921 55.256 112.321 55.256C110.123 55.256 108.395 54.5627 107.137 53.176V61.208H102.145V37.784H106.913V39.768C108.15 38.2747 109.953 37.528 112.321 37.528ZM111.457 51.16C112.737 51.16 113.782 50.7333 114.593 49.88C115.425 49.0053 115.841 47.8427 115.841 46.392C115.841 44.9413 115.425 43.7893 114.593 42.936C113.782 42.0613 112.737 41.624 111.457 41.624C110.177 41.624 109.121 42.0613 108.289 42.936C107.478 43.7893 107.073 44.9413 107.073 46.392C107.073 47.8427 107.478 49.0053 108.289 49.88C109.121 50.7333 110.177 51.16 111.457 51.16ZM135.054 37.528C136.654 37.528 138.105 37.9013 139.406 38.648C140.729 39.3733 141.764 40.408 142.51 41.752C143.257 43.0747 143.63 44.6213 143.63 46.392C143.63 48.1627 143.257 49.72 142.51 51.064C141.764 52.3867 140.729 53.4213 139.406 54.168C138.105 54.8933 136.654 55.256 135.054 55.256C132.857 55.256 131.129 54.5627 129.87 53.176V61.208H124.878V37.784H129.646V39.768C130.884 38.2747 132.686 37.528 135.054 37.528ZM134.19 51.16C135.47 51.16 136.516 50.7333 137.326 49.88C138.158 49.0053 138.574 47.8427 138.574 46.392C138.574 44.9413 138.158 43.7893 137.326 42.936C136.516 42.0613 135.47 41.624 134.19 41.624C132.91 41.624 131.854 42.0613 131.022 42.936C130.212 43.7893 129.806 44.9413 129.806 46.392C129.806 47.8427 130.212 49.0053 131.022 49.88C131.854 50.7333 132.91 51.16 134.19 51.16ZM165.027 55.384C163.256 55.384 161.539 55.1493 159.875 54.68C158.232 54.1893 156.909 53.56 155.907 52.792L157.667 48.888C158.627 49.592 159.768 50.1573 161.091 50.584C162.413 51.0107 163.736 51.224 165.059 51.224C166.531 51.224 167.619 51.0107 168.323 50.584C169.027 50.136 169.379 49.5493 169.379 48.824C169.379 48.2907 169.165 47.8533 168.739 47.512C168.333 47.1493 167.8 46.8613 167.139 46.648C166.499 46.4347 165.624 46.2 164.515 45.944C162.808 45.5387 161.411 45.1333 160.323 44.728C159.235 44.3227 158.296 43.672 157.507 42.776C156.739 41.88 156.355 40.6853 156.355 39.192C156.355 37.8907 156.707 36.7173 157.411 35.672C158.115 34.6053 159.171 33.7627 160.579 33.144C162.008 32.5253 163.747 32.216 165.795 32.216C167.224 32.216 168.621 32.3867 169.987 32.728C171.352 33.0693 172.547 33.56 173.571 34.2L171.971 38.136C169.901 36.9627 167.832 36.376 165.763 36.376C164.312 36.376 163.235 36.6107 162.531 37.08C161.848 37.5493 161.507 38.168 161.507 38.936C161.507 39.704 161.901 40.28 162.691 40.664C163.501 41.0267 164.728 41.3893 166.371 41.752C168.077 42.1573 169.475 42.5627 170.563 42.968C171.651 43.3733 172.579 44.0133 173.347 44.888C174.136 45.7627 174.531 46.9467 174.531 48.44C174.531 49.72 174.168 50.8933 173.443 51.96C172.739 53.0053 171.672 53.8373 170.243 54.456C168.813 55.0747 167.075 55.384 165.027 55.384ZM189.465 54.168C188.974 54.5307 188.366 54.808 187.641 55C186.937 55.1707 186.19 55.256 185.401 55.256C183.353 55.256 181.763 54.7333 180.633 53.688C179.523 52.6427 178.969 51.1067 178.969 49.08V42.008H176.313V38.168H178.969V33.976H183.961V38.168H188.249V42.008H183.961V49.016C183.961 49.7413 184.142 50.3067 184.505 50.712C184.889 51.096 185.422 51.288 186.105 51.288C186.894 51.288 187.566 51.0747 188.121 50.648L189.465 54.168ZM200.568 55.256C198.754 55.256 197.122 54.8827 195.672 54.136C194.242 53.368 193.122 52.312 192.312 50.968C191.501 49.624 191.096 48.0987 191.096 46.392C191.096 44.6853 191.501 43.16 192.312 41.816C193.122 40.472 194.242 39.4267 195.672 38.68C197.122 37.912 198.754 37.528 200.568 37.528C202.381 37.528 204.002 37.912 205.432 38.68C206.861 39.4267 207.981 40.472 208.792 41.816C209.602 43.16 210.008 44.6853 210.008 46.392C210.008 48.0987 209.602 49.624 208.792 50.968C207.981 52.312 206.861 53.368 205.432 54.136C204.002 54.8827 202.381 55.256 200.568 55.256ZM200.568 51.16C201.848 51.16 202.893 50.7333 203.704 49.88C204.536 49.0053 204.952 47.8427 204.952 46.392C204.952 44.9413 204.536 43.7893 203.704 42.936C202.893 42.0613 201.848 41.624 200.568 41.624C199.288 41.624 198.232 42.0613 197.4 42.936C196.568 43.7893 196.152 44.9413 196.152 46.392C196.152 47.8427 196.568 49.0053 197.4 49.88C198.232 50.7333 199.288 51.16 200.568 51.16ZM218.753 40.056C219.35 39.224 220.15 38.5947 221.153 38.168C222.177 37.7413 223.35 37.528 224.673 37.528V42.136C224.118 42.0933 223.745 42.072 223.553 42.072C222.123 42.072 221.003 42.4773 220.193 43.288C219.382 44.0773 218.977 45.272 218.977 46.872V55H213.985V37.784H218.753V40.056ZM244.989 46.456C244.989 46.52 244.957 46.968 244.893 47.8H231.869C232.103 48.8667 232.658 49.7093 233.533 50.328C234.407 50.9467 235.495 51.256 236.797 51.256C237.693 51.256 238.482 51.128 239.165 50.872C239.869 50.5947 240.519 50.168 241.117 49.592L243.773 52.472C242.151 54.328 239.783 55.256 236.669 55.256C234.727 55.256 233.01 54.8827 231.517 54.136C230.023 53.368 228.871 52.312 228.061 50.968C227.25 49.624 226.845 48.0987 226.845 46.392C226.845 44.7067 227.239 43.192 228.029 41.848C228.839 40.4827 229.938 39.4267 231.325 38.68C232.733 37.912 234.301 37.528 236.029 37.528C237.714 37.528 239.239 37.8907 240.605 38.616C241.97 39.3413 243.037 40.3867 243.805 41.752C244.594 43.096 244.989 44.664 244.989 46.456ZM236.061 41.304C234.93 41.304 233.981 41.624 233.213 42.264C232.445 42.904 231.975 43.7787 231.805 44.888H240.285C240.114 43.8 239.645 42.936 238.877 42.296C238.109 41.6347 237.17 41.304 236.061 41.304Z" fill="black"/>
<path d="M28.6594 56.0235C27.5333 55.3548 26.5353 54.5286 25.7038 53.5766C24.789 52.594 23.9415 51.5631 23.1658 50.4894C21.3454 48.1092 19.9178 45.5077 18.9269 42.7649C17.7364 39.5789 17.1599 36.5251 17.1599 33.5382C17.1599 30.2025 17.9684 27.2905 19.5498 24.8436C20.722 22.9311 22.4454 21.3329 24.5418 20.2144C26.5735 19.0881 28.9079 18.4717 31.2991 18.4302C32.1362 18.4302 33.0375 18.5385 33.9941 18.7456C34.6813 18.9193 35.5184 19.1933 36.5411 19.5342C37.8422 19.9818 38.5579 20.2558 38.8006 20.3227C39.5627 20.5712 40.2035 20.6795 40.7068 20.6795C41.0887 20.6795 41.6277 20.5712 42.2399 20.4055C42.5844 20.2972 43.2341 20.106 44.1639 19.7508C45.0849 19.4513 45.8095 19.1948 46.386 19.0037C47.2695 18.7711 48.1244 18.5561 48.8865 18.4477C49.79 18.3206 50.7069 18.2869 51.619 18.3474C53.1997 18.4396 54.7566 18.7385 56.2399 19.2347C58.6654 20.106 60.6269 21.4665 62.0869 23.4004C61.4698 23.7398 60.8907 24.1314 60.3574 24.5696C59.1966 25.4881 58.2078 26.5664 57.4286 27.7636C56.41 29.3997 55.8819 31.2428 55.8954 33.1145C55.9329 35.4132 56.5933 37.4379 57.8944 39.1886C58.851 40.4861 60.0942 41.5957 61.5479 42.4495C62.2921 42.8971 62.9329 43.2046 63.5469 43.4117C63.2595 44.2082 62.9525 44.9792 62.5902 45.7438C61.7685 47.4585 60.7726 49.1025 59.6149 50.6551C58.5833 51.9916 57.7748 52.9872 57.1609 53.6499C56.2042 54.6615 55.2832 55.4341 54.3534 55.9725C53.3307 56.5779 52.1224 56.9012 50.8944 56.9012C50.0628 56.9297 49.2314 56.8399 48.4314 56.6352C47.7442 56.4281 47.0642 56.2035 46.3949 55.947C45.6991 55.6618 44.9816 55.4206 44.2478 55.2254C42.4339 54.8096 40.5321 54.8068 38.7167 55.2174C37.9725 55.4086 37.2568 55.6316 36.55 55.9056C35.5558 56.2784 34.8955 56.5285 34.5135 56.6352C33.7514 56.8343 32.9607 56.9586 32.1612 57C30.9243 57 29.7713 56.6846 28.629 56.0458L28.6594 56.0235ZM44.9725 16.8117C43.3554 17.5333 41.8116 17.8408 40.2784 17.7404C40.0375 16.3625 40.2784 14.9527 40.9192 13.4091C41.4647 12.1013 42.2707 10.8924 43.2983 9.84073C44.3835 8.73363 45.7003 7.82618 47.1749 7.16926C48.7455 6.44763 50.243 6.05735 51.6744 6C51.86 7.44326 51.6744 8.86263 51.08 10.3967C50.53 11.7528 49.7255 13.0155 48.7009 14.1307C47.6551 15.2393 46.3717 16.1503 44.926 16.8101L44.9725 16.8117Z" fill="black"/>
<defs>
<linearGradient id="paint0_linear_1290_6" x1="328.752" y1="42.5585" x2="305.653" y2="131.603" gradientUnits="userSpaceOnUse">
<stop offset="0.0240303" stop-color="#8DFDD3"/>
<stop offset="0.314804" stop-color="#6B6CE6"/>
<stop offset="0.56359" stop-color="#FFFB96"/>
<stop offset="0.830159" stop-color="#01CDFE"/>
<stop offset="0.973851" stop-color="#A3DDC7"/>
</linearGradient>
<linearGradient id="paint1_linear_1290_6" x1="130.102" y1="0" x2="130.102" y2="63" gradientUnits="userSpaceOnUse">
<stop stop-color="white"/>
<stop offset="1" stop-color="white" stop-opacity="0"/>
</linearGradient>
</defs>
</svg>
