<svg width="37" height="30" viewBox="0 0 37 30" fill="none" xmlns="http://www.w3.org/2000/svg">
<g clip-path="url(#clip0_1277_128)">
<path d="M5.83613 18.2142V21.0713C5.84989 23.0799 6.99204 22.7678 7.83834 22.1649L12.7166 18.507V20.357C12.7166 22.0928 13.1982 22.4999 15.2968 22.4999H23.0373C23.0373 22.4999 27.5173 26.8749 27.5526 26.8456C28.1976 27.4999 29.9444 27.277 29.9177 26.0713V22.4999H32.4979C34.605 22.4999 35.0781 22.0649 35.0781 20.357V9.64275C35.0781 7.92847 34.5706 7.4999 32.4979 7.4999H23.8973V6.07132C23.8973 4.30704 23.5017 3.92847 21.3172 3.92847H3.25595C1.22622 3.92847 0.675781 4.29275 0.675781 6.07132V15.357C0.675781 17.0992 1.14881 18.2142 3.25595 18.2142H5.83613ZM27.3376 20.357V23.7292L23.8973 20.357H16.1568C15.5118 20.357 15.2968 20.1642 15.2968 19.6428V10.357C15.2968 9.87847 15.5634 9.64275 16.1568 9.64275H31.6378C32.2304 9.64275 32.4979 9.90704 32.4979 10.3142V19.6428C32.4979 20.1578 32.1891 20.357 31.6378 20.357H27.3376Z" fill="#899CEC"/>
</g>
<defs>
<clipPath id="clip0_1277_128">
<rect width="36.1224" height="30" fill="white" transform="translate(0.245117)"/>
</clipPath>
</defs>
</svg>
