<svg width="261" height="63" viewBox="0 0 261 63" fill="none" xmlns="http://www.w3.org/2000/svg">
<rect x="0.0168457" width="260.17" height="63" rx="6" fill="url(#paint0_linear_1290_4)" fill-opacity="0.6"/>
<rect x="0.0168457" width="260.17" height="63" rx="6" fill="url(#paint1_linear_1290_4)" fill-opacity="0.5"/>
<path d="M84.8017 19.556H87.0157V24.578C86.3677 25.094 85.6117 25.49 84.7477 25.766C83.8837 26.042 82.9957 26.18 82.0837 26.18C80.7997 26.18 79.6417 25.904 78.6097 25.352C77.5777 24.788 76.7677 24.014 76.1797 23.03C75.5917 22.046 75.2977 20.936 75.2977 19.7C75.2977 18.464 75.5917 17.354 76.1797 16.37C76.7677 15.386 77.5777 14.618 78.6097 14.066C79.6537 13.502 80.8237 13.22 82.1197 13.22C83.1757 13.22 84.1357 13.394 84.9997 13.742C85.8637 14.09 86.5897 14.6 87.1777 15.272L85.7017 16.712C84.7417 15.752 83.5837 15.272 82.2277 15.272C81.3397 15.272 80.5477 15.458 79.8517 15.83C79.1677 16.202 78.6277 16.724 78.2317 17.396C77.8477 18.068 77.6557 18.836 77.6557 19.7C77.6557 20.54 77.8477 21.296 78.2317 21.968C78.6277 22.64 79.1677 23.168 79.8517 23.552C80.5477 23.936 81.3337 24.128 82.2097 24.128C83.1937 24.128 84.0577 23.912 84.8017 23.48V19.556ZM99.552 24.038V26H90.102V13.4H99.3V15.362H92.442V18.638H98.526V20.564H92.442V24.038H99.552ZM104.717 15.38H100.541V13.4H111.233V15.38H107.057V26H104.717V15.38ZM117.963 13.4H120.303V26H117.963V13.4ZM126.267 15.38H122.091V13.4H132.783V15.38H128.607V26H126.267V15.38ZM145.4 26.18C144.116 26.18 142.958 25.904 141.926 25.352C140.894 24.788 140.084 24.014 139.496 23.03C138.908 22.034 138.614 20.924 138.614 19.7C138.614 18.476 138.908 17.372 139.496 16.388C140.084 15.392 140.894 14.618 141.926 14.066C142.958 13.502 144.116 13.22 145.4 13.22C146.684 13.22 147.842 13.502 148.874 14.066C149.906 14.618 150.716 15.386 151.304 16.37C151.892 17.354 152.186 18.464 152.186 19.7C152.186 20.936 151.892 22.046 151.304 23.03C150.716 24.014 149.906 24.788 148.874 25.352C147.842 25.904 146.684 26.18 145.4 26.18ZM145.4 24.128C146.24 24.128 146.996 23.942 147.668 23.57C148.34 23.186 148.868 22.658 149.252 21.986C149.636 21.302 149.828 20.54 149.828 19.7C149.828 18.86 149.636 18.104 149.252 17.432C148.868 16.748 148.34 16.22 147.668 15.848C146.996 15.464 146.24 15.272 145.4 15.272C144.56 15.272 143.804 15.464 143.132 15.848C142.46 16.22 141.932 16.748 141.548 17.432C141.164 18.104 140.972 18.86 140.972 19.7C140.972 20.54 141.164 21.302 141.548 21.986C141.932 22.658 142.46 23.186 143.132 23.57C143.804 23.942 144.56 24.128 145.4 24.128ZM165.862 13.4V26H163.936L156.988 17.468V26H154.666V13.4H156.592L163.54 21.932V13.4H165.862Z" fill="black"/>
<path d="M90.14 43.892H94.284V51.844C93.22 52.6467 91.988 53.2627 90.588 53.692C89.188 54.1213 87.7787 54.336 86.36 54.336C84.3253 54.336 82.496 53.9067 80.872 53.048C79.248 52.1707 77.9693 50.9667 77.036 49.436C76.1213 47.8867 75.664 46.1413 75.664 44.2C75.664 42.2587 76.1213 40.5227 77.036 38.992C77.9693 37.4427 79.2573 36.2387 80.9 35.38C82.5427 34.5027 84.3907 34.064 86.444 34.064C88.1613 34.064 89.72 34.3533 91.12 34.932C92.52 35.5107 93.696 36.3507 94.648 37.452L91.736 40.14C90.336 38.6653 88.6467 37.928 86.668 37.928C85.4173 37.928 84.3067 38.1893 83.336 38.712C82.3653 39.2347 81.6093 39.972 81.068 40.924C80.5267 41.876 80.256 42.968 80.256 44.2C80.256 45.4133 80.5267 46.496 81.068 47.448C81.6093 48.4 82.356 49.1467 83.308 49.688C84.2787 50.2107 85.38 50.472 86.612 50.472C87.9187 50.472 89.0947 50.192 90.14 49.632V43.892ZM105.358 54.224C103.771 54.224 102.343 53.8973 101.074 53.244C99.8229 52.572 98.8429 51.648 98.1336 50.472C97.4242 49.296 97.0696 47.9613 97.0696 46.468C97.0696 44.9747 97.4242 43.64 98.1336 42.464C98.8429 41.288 99.8229 40.3733 101.074 39.72C102.343 39.048 103.771 38.712 105.358 38.712C106.944 38.712 108.363 39.048 109.614 39.72C110.864 40.3733 111.844 41.288 112.554 42.464C113.263 43.64 113.618 44.9747 113.618 46.468C113.618 47.9613 113.263 49.296 112.554 50.472C111.844 51.648 110.864 52.572 109.614 53.244C108.363 53.8973 106.944 54.224 105.358 54.224ZM105.358 50.64C106.478 50.64 107.392 50.2667 108.102 49.52C108.83 48.7547 109.194 47.7373 109.194 46.468C109.194 45.1987 108.83 44.1907 108.102 43.444C107.392 42.6787 106.478 42.296 105.358 42.296C104.238 42.296 103.314 42.6787 102.586 43.444C101.858 44.1907 101.494 45.1987 101.494 46.468C101.494 47.7373 101.858 48.7547 102.586 49.52C103.314 50.2667 104.238 50.64 105.358 50.64ZM123.705 54.224C122.119 54.224 120.691 53.8973 119.421 53.244C118.171 52.572 117.191 51.648 116.481 50.472C115.772 49.296 115.417 47.9613 115.417 46.468C115.417 44.9747 115.772 43.64 116.481 42.464C117.191 41.288 118.171 40.3733 119.421 39.72C120.691 39.048 122.119 38.712 123.705 38.712C125.292 38.712 126.711 39.048 127.961 39.72C129.212 40.3733 130.192 41.288 130.901 42.464C131.611 43.64 131.965 44.9747 131.965 46.468C131.965 47.9613 131.611 49.296 130.901 50.472C130.192 51.648 129.212 52.572 127.961 53.244C126.711 53.8973 125.292 54.224 123.705 54.224ZM123.705 50.64C124.825 50.64 125.74 50.2667 126.449 49.52C127.177 48.7547 127.541 47.7373 127.541 46.468C127.541 45.1987 127.177 44.1907 126.449 43.444C125.74 42.6787 124.825 42.296 123.705 42.296C122.585 42.296 121.661 42.6787 120.933 43.444C120.205 44.1907 119.841 45.1987 119.841 46.468C119.841 47.7373 120.205 48.7547 120.933 49.52C121.661 50.2667 122.585 50.64 123.705 50.64ZM150.425 38.936V51.48C150.425 54.2427 149.706 56.296 148.269 57.64C146.832 58.984 144.732 59.656 141.969 59.656C140.513 59.656 139.132 59.4787 137.825 59.124C136.518 58.7693 135.436 58.256 134.577 57.584L136.313 54.448C136.948 54.9707 137.75 55.3813 138.721 55.68C139.692 55.9973 140.662 56.156 141.633 56.156C143.145 56.156 144.256 55.8107 144.965 55.12C145.693 54.448 146.057 53.4213 146.057 52.04V51.396C144.918 52.6467 143.332 53.272 141.297 53.272C139.916 53.272 138.646 52.9733 137.489 52.376C136.35 51.76 135.445 50.9013 134.773 49.8C134.101 48.6987 133.765 47.4293 133.765 45.992C133.765 44.5547 134.101 43.2853 134.773 42.184C135.445 41.0827 136.35 40.2333 137.489 39.636C138.646 39.02 139.916 38.712 141.297 38.712C143.481 38.712 145.142 39.4307 146.281 40.868V38.936H150.425ZM142.165 49.688C143.322 49.688 144.265 49.352 144.993 48.68C145.74 47.9893 146.113 47.0933 146.113 45.992C146.113 44.8907 145.74 44.004 144.993 43.332C144.265 42.6413 143.322 42.296 142.165 42.296C141.008 42.296 140.056 42.6413 139.309 43.332C138.562 44.004 138.189 44.8907 138.189 45.992C138.189 47.0933 138.562 47.9893 139.309 48.68C140.056 49.352 141.008 49.688 142.165 49.688ZM154.49 33.224H158.858V54H154.49V33.224ZM177.668 46.524C177.668 46.58 177.64 46.972 177.584 47.7H166.188C166.394 48.6333 166.879 49.3707 167.644 49.912C168.41 50.4533 169.362 50.724 170.5 50.724C171.284 50.724 171.975 50.612 172.572 50.388C173.188 50.1453 173.758 49.772 174.28 49.268L176.604 51.788C175.186 53.412 173.114 54.224 170.388 54.224C168.69 54.224 167.187 53.8973 165.88 53.244C164.574 52.572 163.566 51.648 162.856 50.472C162.147 49.296 161.792 47.9613 161.792 46.468C161.792 44.9933 162.138 43.668 162.828 42.492C163.538 41.2973 164.499 40.3733 165.712 39.72C166.944 39.048 168.316 38.712 169.828 38.712C171.303 38.712 172.638 39.0293 173.832 39.664C175.027 40.2987 175.96 41.2133 176.632 42.408C177.323 43.584 177.668 44.956 177.668 46.524ZM169.856 42.016C168.867 42.016 168.036 42.296 167.364 42.856C166.692 43.416 166.282 44.1813 166.132 45.152H173.552C173.403 44.2 172.992 43.444 172.32 42.884C171.648 42.3053 170.827 42.016 169.856 42.016ZM197.298 34.4C199.034 34.4 200.537 34.6893 201.806 35.268C203.094 35.8467 204.083 36.668 204.774 37.732C205.465 38.796 205.81 40.056 205.81 41.512C205.81 42.9493 205.465 44.2093 204.774 45.292C204.083 46.356 203.094 47.1773 201.806 47.756C200.537 48.316 199.034 48.596 197.298 48.596H193.35V54H188.814V34.4H197.298ZM197.046 44.9C198.409 44.9 199.445 44.6107 200.154 44.032C200.863 43.4347 201.218 42.5947 201.218 41.512C201.218 40.4107 200.863 39.5707 200.154 38.992C199.445 38.3947 198.409 38.096 197.046 38.096H193.35V44.9H197.046ZM209.014 33.224H213.382V54H209.014V33.224ZM223.512 38.712C225.845 38.712 227.637 39.272 228.888 40.392C230.138 41.4933 230.764 43.164 230.764 45.404V54H226.676V52.124C225.854 53.524 224.324 54.224 222.084 54.224C220.926 54.224 219.918 54.028 219.06 53.636C218.22 53.244 217.576 52.7027 217.128 52.012C216.68 51.3213 216.456 50.5373 216.456 49.66C216.456 48.26 216.978 47.1587 218.024 46.356C219.088 45.5533 220.721 45.152 222.924 45.152H226.396C226.396 44.2 226.106 43.472 225.528 42.968C224.949 42.4453 224.081 42.184 222.924 42.184C222.121 42.184 221.328 42.3147 220.544 42.576C219.778 42.8187 219.125 43.1547 218.584 43.584L217.016 40.532C217.837 39.9533 218.817 39.5053 219.956 39.188C221.113 38.8707 222.298 38.712 223.512 38.712ZM223.176 51.284C223.922 51.284 224.585 51.116 225.164 50.78C225.742 50.4253 226.153 49.912 226.396 49.24V47.7H223.4C221.608 47.7 220.712 48.288 220.712 49.464C220.712 50.024 220.926 50.472 221.356 50.808C221.804 51.1253 222.41 51.284 223.176 51.284ZM249.395 38.936L242.591 54.924C241.901 56.66 241.042 57.8827 240.015 58.592C239.007 59.3013 237.785 59.656 236.347 59.656C235.563 59.656 234.789 59.5347 234.023 59.292C233.258 59.0493 232.633 58.7133 232.147 58.284L233.743 55.176C234.079 55.4747 234.462 55.708 234.891 55.876C235.339 56.044 235.778 56.128 236.207 56.128C236.805 56.128 237.29 55.9787 237.663 55.68C238.037 55.4 238.373 54.924 238.671 54.252L238.727 54.112L232.203 38.936H236.711L240.939 49.156L245.195 38.936H249.395Z" fill="black"/>
<path d="M51.8307 39C57.497 36.4984 61.7925 34.5922 62.1628 34.444C63.3472 33.9376 64.5703 32.5972 62.1628 31.556C61.3854 31.2285 57.2003 29.3817 51.8307 27L44.387 33.0445L51.8307 38.9999V39Z" fill="#FFD900"/>
<path d="M46.0356 30L19.1765 53.9817C19.807 54.0557 20.5187 53.9076 21.3578 53.4989C23.1196 52.6445 41.796 43.6088 54.4709 37.4378L46.0356 30Z" fill="#F43249"/>
<path d="M43.7425 33L51.4457 26.4045C51.4457 26.4045 22.9318 13.1466 21.2066 12.364C20.5567 12.036 19.8283 11.9386 19.1765 12.036L43.7425 33Z" fill="#00EE76"/>
<path d="M44.387 32.9351L19.0567 12C18.0287 12.1961 17.1599 12.9455 17.1599 14.4782V51.4894C17.1599 52.8922 17.8322 53.9026 19.096 54L44.387 32.9351Z" fill="#00D3FF"/>
<defs>
<linearGradient id="paint0_linear_1290_4" x1="328.752" y1="42.5585" x2="305.653" y2="131.603" gradientUnits="userSpaceOnUse">
<stop offset="0.0240303" stop-color="#8DFDD3"/>
<stop offset="0.314804" stop-color="#6B6CE6"/>
<stop offset="0.56359" stop-color="#FFFB96"/>
<stop offset="0.830159" stop-color="#01CDFE"/>
<stop offset="0.973851" stop-color="#A3DDC7"/>
</linearGradient>
<linearGradient id="paint1_linear_1290_4" x1="130.102" y1="0" x2="130.102" y2="63" gradientUnits="userSpaceOnUse">
<stop stop-color="white"/>
<stop offset="1" stop-color="white" stop-opacity="0"/>
</linearGradient>
</defs>
</svg>
