<svg width="37" height="30" viewBox="0 0 37 30" fill="none" xmlns="http://www.w3.org/2000/svg">
<path d="M34.4856 8.53126C30.8734 0.562507 19.1336 4.12501 18.0612 8.10938C16.5938 3.89063 5.13619 0.750007 1.63683 8.53126C-2.25762 17.2031 16.7066 24.9844 18.0612 26.25C19.4158 25.2188 38.3801 17.0625 34.4856 8.53126Z" fill="#899CEC"/>
<path d="M30.3655 6.23438L28.8981 3.75L27.4306 6.23438L24.4392 7.45312L27.4306 8.67188L28.8981 11.1562L30.3655 8.67188L33.3569 7.45312L30.3655 6.23438Z" fill="white"/>
<path d="M9.20001 12.5625L7.16812 9.1875L5.13624 12.5625L1.12891 14.2031L5.13624 15.8906L7.16812 19.2187L9.20001 15.8906L13.2073 14.2031L9.20001 12.5625Z" fill="white"/>
<path d="M27.4868 19.875L25.9065 17.2031L24.2697 19.875L20.9961 21.2344L24.2697 22.5937L25.9065 25.2656L27.4868 22.5937L30.7604 21.2344L27.4868 19.875Z" fill="white"/>
<path d="M10.6594 9.65684L12.3357 8.26465L14.012 9.65684L12.3357 11.049L10.6594 9.65684Z" fill="white"/>
<path d="M13.1943 19.4878L14.5913 18.3276L15.9876 19.4878L14.5913 20.6475L13.1943 19.4878Z" fill="white"/>
<path d="M22.1895 12.7931L23.8658 11.4009L25.5421 12.7931L23.8658 14.1853L22.1895 12.7931Z" fill="white"/>
</svg>
