<svg width="190" height="157" viewBox="0 0 190 157" fill="none" xmlns="http://www.w3.org/2000/svg">
<g clip-path="url(#clip0_1338_0)">
<path fill-rule="evenodd" clip-rule="evenodd" d="M0 0H189.9V156.034H0V0Z" fill="white"/>
<path fill-rule="evenodd" clip-rule="evenodd" d="M167.461 139.552H169.47V153.505L157.192 142.945V152.986H155.127V138.891L167.461 149.498V139.552ZM109.751 139.552V148.083C109.751 149.591 109.234 150.817 108.201 151.761C107.112 152.798 105.62 153.269 103.727 153.269C101.949 153.269 100.458 152.798 99.3665 151.761C98.2779 150.817 97.7597 149.591 97.7597 148.083V139.552H99.8266V147.518C99.8266 150.299 101.089 151.714 103.727 151.714C106.422 151.714 107.743 150.299 107.743 147.518V139.552H109.751ZM116.061 139.552H125.871V141.108H121.971V152.986H120.02V141.108H116.061V139.552ZM112.505 139.552H114.57V152.986H112.505V139.552ZM94.4337 139.552H96.6711L89.5571 153.74L82.444 139.552H84.6814L89.5581 149.498L94.4337 139.552ZM151.341 146.292C151.341 147.8 150.709 149.073 149.391 150.157C148.186 151.194 146.638 151.713 144.857 151.713C143.079 151.713 141.53 151.194 140.212 150.157C138.892 149.073 138.262 147.8 138.262 146.292C138.262 144.784 138.835 143.511 140.097 142.474C141.359 141.39 142.966 140.872 144.857 140.872C146.751 140.872 148.3 141.39 149.504 142.474C150.71 143.511 151.341 144.783 151.341 146.292ZM150.883 141.343C149.163 139.975 147.154 139.269 144.858 139.269C142.507 139.269 140.5 139.975 138.778 141.343C137.115 142.709 136.254 144.36 136.254 146.291C136.254 148.27 137.116 149.921 138.778 151.287C140.442 152.608 142.45 153.268 144.858 153.268C147.212 153.268 149.276 152.608 150.883 151.287C152.547 149.921 153.407 148.27 153.407 146.291C153.408 144.36 152.548 142.709 150.883 141.343ZM135.796 139.552V141.108H131.951V152.986H129.886V141.108H125.986V139.552H135.796ZM40.9098 142.474C42.1146 143.511 42.688 144.784 42.688 146.292C42.688 147.8 42.0565 149.073 40.7955 150.157C39.5335 151.194 37.9838 151.713 36.2055 151.713C34.4273 151.713 32.8786 151.194 31.5594 150.157C30.3545 149.073 29.6669 147.8 29.6669 146.292C29.6669 144.784 30.2974 143.511 31.5023 142.474C32.7643 141.39 34.314 140.872 36.2065 140.872C38.099 140.872 39.7059 141.39 40.9098 142.474ZM42.2299 141.343C40.5088 139.975 38.501 139.269 36.2065 139.269C33.8539 139.269 31.7899 139.975 30.1831 141.343C28.462 142.709 27.6019 144.36 27.6019 146.291C27.6019 148.27 28.463 149.921 30.1831 151.287C31.7899 152.608 33.7977 153.268 36.2065 153.268C38.6163 153.268 40.6241 152.608 42.2299 151.287C43.951 149.921 44.7539 148.27 44.7539 146.291C44.7539 144.36 43.951 142.709 42.2299 141.343ZM48.4829 147.517C48.4829 150.298 49.802 151.713 52.4413 151.713C55.0235 151.713 56.3998 150.298 56.3998 147.517V139.551H58.4076V148.083C58.4076 149.591 57.8913 150.816 56.8007 151.76C55.7111 152.797 54.2196 153.268 52.4413 153.268C50.6059 153.268 49.1715 152.797 48.0819 151.76C46.9342 150.816 46.4189 149.591 46.4189 148.083V139.551H48.4838V147.517H48.4829ZM22.4376 139.552V151.478H27.4285V152.986H20.4298V139.551H22.4376V139.552ZM71.6011 145.066C74.3547 145.961 75.6749 147.281 75.6749 149.073C75.6749 150.298 75.1586 151.287 74.1262 152.09C73.1508 152.891 71.9459 153.269 70.5115 153.269C69.1924 153.269 68.0446 152.939 67.0703 152.184C66.1521 151.478 65.5787 150.581 65.4063 149.498L67.4713 149.12C67.4713 149.875 67.7579 150.488 68.3894 151.006C69.0209 151.478 69.7086 151.713 70.6268 151.713C71.4878 151.713 72.1755 151.43 72.807 150.912C73.3232 150.441 73.6099 149.827 73.6099 149.073C73.6099 148.036 72.6917 147.189 70.7992 146.528L69.6515 146.199C67.357 145.303 66.1521 144.172 66.1521 142.757C66.1521 141.72 66.6683 140.825 67.5865 140.211C68.5618 139.552 69.6515 139.269 70.9716 139.269C72.8641 139.269 74.2414 139.975 75.1586 141.343L73.5528 142.097C72.9213 141.296 72.0612 140.872 70.9135 140.872C70.2248 140.872 69.5362 141.012 69.02 141.343C68.4466 141.719 68.1589 142.192 68.1589 142.756C68.1589 143.557 68.9047 144.171 70.5105 144.642L71.6011 145.066ZM61.1612 139.552H63.2271V152.986H61.1612V139.552ZM141.719 18.1138L102.152 94.8464L91.2358 75.1652L111.399 30.0725C112.915 26.5852 118.22 24.9654 127.165 24.9654L130.348 18.1138H83.3524L80.32 24.9654C86.9907 24.9654 89.7196 26.5844 88.6576 30.0725L78.6531 52.9924L58.9455 18.1138C55.3072 14.3772 57.1259 12.5081 64.2517 12.5081V4.41238H18.7708V12.5089C27.2611 12.5089 32.5663 14.378 34.841 18.1146L68.1934 76.4118L52.5783 110.667C52.2738 115.275 43.4821 117.519 26.5025 117.519L23.3193 124.37H153.089L171.129 92.855H161.73C152.938 109.173 142.781 117.519 131.411 117.519H71.8307L80.6234 98.2114L88.2034 110.667H105.183L153.088 18.1155C155.362 12.5097 161.275 9.52109 170.522 9.52109V2.29395H131.41V9.51947C143.235 9.51947 146.571 12.5089 141.719 18.1138Z" fill="black"/>
</g>
<defs>
<clipPath id="clip0_1338_0">
<rect width="189.9" height="156.034" fill="white"/>
</clipPath>
</defs>
</svg>
