<svg width="296" height="244" viewBox="0 0 296 244" fill="none" xmlns="http://www.w3.org/2000/svg">
<g clip-path="url(#clip0_1338_18)">
<path d="M0.450195 0H295.975V243.67H0.450195V0Z" fill="white"/>
<path d="M78.0159 68.5621H12.923C10.8305 77.8255 21.734 81.458 21.734 81.458H91.2335L78.0159 68.5621ZM97.001 87.2284H31.9069C29.8144 96.4918 40.7178 100.124 40.7178 100.124H110.217L97.001 87.2284ZM283.5 68.5621H218.407L205.189 81.458H274.688C274.691 81.458 285.593 77.8255 283.5 68.5621ZM199.423 87.2284L186.205 100.124H255.704C255.704 100.124 266.607 96.4918 264.516 87.2284H199.423ZM180.437 105.896L174.61 111.581C173.069 110.339 170.303 108.001 168.576 105.896H124.062C123.77 108.32 123.377 110.606 122.865 112.607L115.987 105.896H50.892C48.7995 115.158 59.7041 118.792 59.7041 118.792H236.719C236.719 118.792 247.622 115.159 245.531 105.896H180.437ZM165.677 100.124L160.405 87.2284H124.563C124.646 89.2485 124.77 91.1822 124.77 92.995C124.77 95.3089 124.705 97.7269 124.566 100.124H165.677ZM179.651 78.4976C179.651 78.4976 177.971 70.6166 167.009 67.6621H129.491C125.784 72.6426 124.731 77.6536 124.536 82.359H163.654C164.157 79.2148 164.705 78.4976 179.651 78.4976ZM159.179 138.389H163.01L161.095 134.454L159.179 138.389ZM124.949 129.555C119.625 129.555 115.021 132.596 112.826 138.388H135.246C134.605 132.733 132.42 129.555 124.949 129.555Z" fill="black"/>
<path d="M70.5444 124.053V128.663C70.5444 134.034 75.8258 138.388 82.3392 138.388H106.343C109.508 130.85 117.092 128.09 123.952 128.09C125.488 128.09 126.886 128.277 128.156 128.622C136.568 129.984 137.011 128.226 137.027 127.935V127.894C137.027 127.894 137.029 127.911 137.027 127.935V131.067L137.028 138.388H156.785L162.765 126.108L168.742 138.388H214.087C220.603 138.388 225.882 134.033 225.882 128.664V124.054L70.5444 124.053ZM111.453 146.638C111.453 151.246 112.172 154.709 113.416 157.264H133.001V151.029H129.627V149.781H142.71V151.029H139.039V157.264H147.6L154.576 142.927H111.7C111.533 144.16 111.45 145.399 111.453 146.638ZM152.449 152.223H169.741L165.218 142.928H156.971L152.449 152.223ZM149.994 157.265H172.195L170.35 153.473H151.84L149.994 157.265ZM198.38 142.928H170.949L177.925 157.265H198.359C203.302 155.365 206.73 151.236 206.73 146.443V142.928H198.38ZM105.09 142.928H89.6916V146.443C89.6916 151.236 93.1187 155.365 98.0628 157.265H107.943C106.032 154.49 104.822 150.97 104.822 146.639C104.823 145.32 104.916 144.085 105.09 142.928ZM130.686 161.672H117.15C119.352 163.154 122.043 163.722 124.95 163.722C127.271 163.722 129.17 162.979 130.686 161.672Z" fill="black"/>
<path d="M180.07 161.672L180.912 163.407H185.149V164.655H169.559V163.407H175.185L174.343 161.672H147.848L147.005 163.407H150.764V164.655H140.876V163.407H144.611L145.454 161.672H139.041V165.186C139.041 165.186 137.264 161.184 130.736 163.757C130.737 163.755 130.738 163.754 130.738 163.752C128.797 164.833 126.531 165.437 123.952 165.437C120.232 165.437 115.906 164.229 112.309 161.672H108.356C108.299 162.152 108.269 162.643 108.269 163.135C108.269 168.737 112.047 173.595 117.572 176.008H178.851C184.377 173.595 188.155 168.738 188.155 163.135C188.155 162.643 188.127 162.152 188.069 161.672H180.07Z" fill="black"/>
</g>
<defs>
<clipPath id="clip0_1338_18">
<rect width="295.525" height="243.67" fill="white" transform="translate(0.450195)"/>
</clipPath>
</defs>
</svg>
