<svg width="221" height="130" viewBox="0 0 221 130" fill="none" xmlns="http://www.w3.org/2000/svg">
<g clip-path="url(#clip0_1338_4)">
<path d="M16.364 129.43C16.2704 129.421 15.9531 129.391 15.6589 129.365C12.9732 129.126 10.1063 128.152 7.85273 126.713C4.47389 124.556 2.09286 121.415 1.09971 117.804C0.571942 115.886 0.467049 113.736 0.804583 111.759C1.70962 106.457 5.66019 101.916 11.1404 99.8772C12.5081 99.3685 13.8655 99.0468 15.4643 98.8524C16.3507 98.7448 18.5092 98.7441 19.4033 98.8515C21.2995 99.079 22.9067 99.503 24.558 100.212C26.375 100.991 27.6324 101.794 29.1545 103.146C30.485 104.328 31.3067 105.312 32.2593 106.864L32.4619 107.194L31.7438 107.665C30.7544 108.314 28.4338 109.782 27.678 110.238L27.0536 110.614L26.7968 110.119C26.4793 109.507 26.2532 109.144 25.8871 108.659C24.4244 106.722 22.0918 105.338 19.5492 104.899C18.2038 104.667 16.5475 104.693 15.2212 104.967C13.8285 105.255 12.3161 105.9 11.1607 106.699C10.695 107.021 9.83782 107.775 9.4607 108.194C7.42582 110.455 6.6763 113.336 7.37417 116.214C7.61581 117.21 8.24123 118.512 8.89369 119.376C10.6205 121.664 13.2674 123.13 16.2655 123.459C16.7955 123.517 18.0722 123.517 18.6022 123.459C21.2573 123.167 23.7106 121.944 25.387 120.075C25.8806 119.525 26.2247 119.048 26.6171 118.372C26.789 118.075 26.9441 117.833 26.9616 117.833C26.9792 117.833 28.2016 118.598 29.678 119.533L32.3626 121.233L32.0905 121.689C31.526 122.636 30.5548 123.826 29.6503 124.68C28.1092 126.134 26.6082 127.122 24.6552 127.968C22.9684 128.699 21.181 129.165 19.2817 129.37C18.8558 129.415 16.6668 129.461 16.364 129.43ZM39.3169 113.951V99.0514H45.8332V109.747H62.8534V99.0514H69.3697V128.851H62.8534V115.741H45.8332V128.851H39.3169V113.951ZM75.9531 126.21C76.6794 124.757 80.0305 118.052 83.4 111.31L89.5264 99.0514L94.0975 99.0518L98.6686 99.0523L106.074 113.769C110.147 121.863 113.522 128.567 113.573 128.668L113.666 128.851H105.863L104.357 125.897L102.851 122.944L94.1314 122.954L85.4121 122.965L83.9226 125.908L82.4331 128.851H74.6324L75.9531 126.21ZM100.095 116.932C100.067 116.827 94.1472 105.091 94.1219 105.092C94.1038 105.092 88.4815 116.728 88.3917 116.951C88.3817 116.976 90.6299 116.992 94.2429 116.992C99.2339 116.992 100.108 116.983 100.095 116.932ZM118.923 113.951V99.0514L123.506 99.0523L128.089 99.0532L135.262 107.987L142.435 116.922L142.447 107.986L142.459 99.0514H149.024V128.852L146.39 128.841L143.756 128.83L134.658 117.63C129.654 111.469 125.544 106.428 125.524 106.428C125.504 106.427 125.488 111.472 125.488 117.639V128.851H118.923V113.951ZM160.89 113.951V99.0514H184.377V105.046H167.454V110.997H183.113V116.992H167.454V122.943H186.809V128.851H160.89V113.951ZM196 113.951V99.0514H202.565V122.943H220.849V128.851H196V113.951ZM83.4981 91.4725C76.484 91.1847 68.6733 89.296 62.3766 86.365C57.5425 84.1149 53.7113 81.597 49.6976 78.0321C46.554 75.24 44.2348 72.6681 42.2716 69.797L41.4121 68.54L42.6314 67.9666C45.0071 66.8491 55.8373 61.931 55.9223 61.931C55.9697 61.931 56.4172 62.4711 56.9165 63.1312C62.5605 70.5915 71.3901 75.4445 81.7228 76.7653C83.5291 76.9962 88.9609 76.9594 90.9279 76.7029C93.1166 76.4175 95.7419 75.8882 97.4094 75.3961C97.5179 75.3641 97.3106 75.0655 96.8335 74.5668C93.1402 70.7059 89.7734 65.4066 87.8792 60.4733C84.4529 51.5494 84.209 41.9703 87.1789 32.9699C89.0232 27.3808 92.1972 21.9559 96.2168 17.5227C96.8156 16.8622 97.3057 16.2794 97.3057 16.2277C97.3057 16.0518 94.1679 15.3111 92.1114 15.0016C88.9341 14.5234 83.9601 14.4641 81.0886 14.8702C76.257 15.5536 71.3529 17.1583 67.5207 19.31C63.2503 21.7078 59.6891 24.7891 56.8474 28.5455L55.5926 30.2041L53.9953 29.4605C53.1169 29.0515 49.8536 27.5517 46.7436 26.1277C43.6337 24.7038 41.0795 23.5311 41.0676 23.5218C41.0182 23.4832 42.9652 20.7369 43.7666 19.7149C46.2 16.6122 50.5208 12.5029 53.7131 10.2557C62.0607 4.37931 71.3407 1.06983 81.7886 0.243316C83.7266 0.0899601 88.5322 0.0886232 90.4018 0.240858C97.0348 0.780881 102.721 2.20719 108.595 4.80436L111.402 6.04561L112.343 5.57101C113.861 4.80462 116.56 3.69883 118.609 3.00295C124.358 1.05059 130.149 0.12127 136.547 0.12403C141.015 0.12597 144.742 0.515268 148.788 1.40259C157.929 3.40717 165.724 7.25167 172.44 13.0676C176.082 16.2206 178.935 19.4399 181.239 22.9941L181.588 23.5328L175.906 26.1327C172.78 27.5627 169.51 29.064 168.64 29.4688L167.057 30.205L165.86 28.6043C159.957 20.7063 150.3 15.5645 139.729 14.6911C136.6 14.4325 131.953 14.6706 129.129 15.2343C127.675 15.5244 125.315 16.1223 125.316 16.2004C125.316 16.2412 125.702 16.6944 126.174 17.2076C132.231 23.7989 136.014 31.8336 137.236 40.7064C137.527 42.8241 137.566 48.231 137.305 50.3275C136.201 59.181 132.426 67.3515 126.401 73.9291C125.035 75.4202 125.093 75.3171 125.531 75.4672C125.738 75.5381 126.706 75.7756 127.682 75.9949C132.645 77.11 137.987 77.2676 143.002 76.4468C152.125 74.9539 160.341 70.1693 165.625 63.2723C166.116 62.6308 166.56 62.063 166.611 62.0104C166.662 61.9578 167.88 62.4378 169.318 63.0769C172.166 64.3431 181.088 68.4375 181.184 68.5223C181.343 68.6637 178.5 72.4068 176.756 74.3511C175.105 76.1918 170.778 80.0248 168.711 81.4778C161.239 86.7286 152.855 89.9391 143.62 91.0853C133.016 92.4014 121.786 90.6388 112.649 86.2243L111.358 85.6005L109.756 86.352C101.821 90.0756 92.7178 91.8506 83.4981 91.4725ZM113.123 65.6046C117.545 60.75 120.305 54.8611 120.985 48.8264C121.213 46.801 121.077 42.6753 120.722 40.831C119.744 35.7561 117.651 31.4064 114.275 27.4315C113.639 26.6831 112.713 25.6824 112.217 25.208L111.316 24.3454L110.479 25.1497C109.377 26.2098 107.54 28.3728 106.614 29.7007C101.912 36.4434 100.376 44.7271 102.368 52.6113C103.621 57.5727 106.502 62.5707 110.384 66.5185L111.278 67.4276L111.669 67.0992C111.884 66.9186 112.539 66.246 113.123 65.6046Z" fill="black"/>
</g>
<defs>
<clipPath id="clip0_1338_4">
<rect width="220.239" height="129.316" fill="white" transform="translate(0.610352 0.124023)"/>
</clipPath>
</defs>
</svg>
