<svg width="219" height="162" viewBox="0 0 219 162" fill="none" xmlns="http://www.w3.org/2000/svg">
<g clip-path="url(#clip0_1338_13)">
<path fill-rule="evenodd" clip-rule="evenodd" d="M0.483887 0.611328H218.475V161.989H0.483887V0.611328Z" fill="white"/>
<path fill-rule="evenodd" clip-rule="evenodd" d="M147.983 37.7117C154.826 35.1783 158.338 35.5676 158.426 38.101C158.512 41.4139 157.809 45.831 157.37 49.0141C154.739 66.2942 150.526 80.3904 150.176 98.1895C161.496 76.4923 170.885 61.5514 183.083 43.0381C186.944 37.1265 189.489 38.2308 192.647 37.1265C205.021 33.0334 205.459 35.5668 203.792 40.6336C197.826 59.018 182.556 117.157 180.188 126.059C179.486 128.657 175.625 127.618 174.747 126.579C170.184 122.096 165.269 122.03 165.795 118.978C168.604 104.167 178.608 66.6843 181.153 57.8492C167.902 77.8561 154.212 102.997 147.195 117.157C145.702 120.146 142.982 119.952 141.315 117.743C138.856 114.559 134.293 113.001 133.593 109.363C131.134 97.7341 136.312 75.5178 137.014 61.4216C129.906 76.7518 117.798 106.635 112.532 120.08C110.339 125.668 103.056 124.693 104.987 119.366C113.058 96.6943 130.346 56.7433 137.804 42.3867C139.559 38.9458 144.208 39.1408 147.983 37.7117ZM104.283 34.9188C101.913 34.5295 95.0684 37.2571 90.8568 37.7125C89.5415 37.9729 88.3122 38.9466 87.8746 39.7252C81.2033 51.0929 75.2377 61.8779 70.1485 71.6206C62.4629 72.664 54.7983 73.7901 47.157 74.9987C53.3872 63.3062 59.6185 51.6789 65.6724 40.5691C68.6557 34.9832 60.7597 34.4633 57.6858 40.05C53.7378 47.261 46.2782 60.8364 38.0304 76.6237C31.9755 77.728 25.3935 78.9621 18.7256 80.4565C13.8118 81.4302 13.6354 82.4039 15.7411 84.6141C16.9693 85.7829 19.2515 85.6531 20.3926 86.5631C23.2889 88.7709 25.0441 91.4349 30.2192 91.8242C25.4817 100.919 20.9174 110.209 16.8822 119.108C14.2495 124.759 21.7079 125.929 24.5159 119.953C29.0792 110.404 33.9048 100.725 38.908 90.9142C43.0325 90.2653 52.9484 88.7064 62.162 87.1467C54.8789 102.088 50.1403 113.326 48.2087 118.848C47.8593 119.887 48.5604 120.407 48.8228 120.926C51.1932 123.524 53.6496 123.654 56.8082 126.968C57.5987 127.878 60.4939 128.332 61.5479 126.123C67.838 111.987 74.5376 97.9522 81.6421 84.0289C84.3631 83.509 89.278 82.6642 92.2603 79.4167C97.5258 73.5696 99.0187 74.74 100.422 72.9852C102.001 70.7122 100.86 68.6978 95.2448 69.1524C95.2448 69.1524 93.1379 69.2831 89.1016 69.6079C95.4189 57.7194 101.037 47.6511 104.897 39.9203C106.212 37.2571 106.39 35.3081 104.283 34.9188Z" fill="black"/>
<path fill-rule="evenodd" clip-rule="evenodd" d="M98.1102 108.74C99.0229 107.883 99.8507 106.998 100.597 106.181C103.922 102.539 100.685 100.398 97.2631 102.542C96.7746 102.874 96.2668 103.237 95.7624 103.614C95.2012 102.314 94.6445 101.014 94.092 99.7123C95.6606 98.2891 97.1874 96.8281 98.4902 95.3312C103.99 89.0169 93.2269 85.3926 88.5743 89.4858C86.1191 91.6299 86.7332 93.7731 87.4343 95.6569C87.6379 96.2228 87.9545 97.0316 88.347 98.0128C86.6405 99.3323 84.9901 100.691 83.3981 102.087C78.0454 106.635 79.5337 112.492 85.1532 113.78C88.5415 114.558 91.7386 113.424 94.5082 111.616C94.6417 111.874 94.7695 112.119 94.8939 112.352C96.3856 115.08 101.037 114.235 99.1936 110.923C98.8973 110.366 98.5264 109.617 98.1102 108.74ZM90.4923 103.016C90.947 104.077 91.4366 105.191 91.9252 106.258C91.3134 106.635 90.6925 107.017 90.0671 107.285C87.8912 108.217 86.2932 107.22 89.1013 104.427C89.5604 103.944 90.0309 103.477 90.4923 103.016ZM92.2486 95.0616C92.0869 94.7594 91.9942 94.463 91.9094 94.2277C90.3351 89.8742 97.0754 91.0371 93.6657 93.9029C93.1817 94.3089 92.7417 94.7108 92.2486 95.0616Z" fill="black"/>
</g>
<defs>
<clipPath id="clip0_1338_13">
<rect width="217.991" height="161.378" fill="white" transform="translate(0.483887 0.611328)"/>
</clipPath>
</defs>
</svg>
