<svg width="175" height="136" viewBox="0 0 175 136" fill="none" xmlns="http://www.w3.org/2000/svg">
<g clip-path="url(#clip0_1338_11)">
<path d="M84.8335 1.836C78.7326 7.14 70.937 20.264 67.4628 31.28C65.9376 36.244 64.9208 57.12 66.2765 57.12H88.6466L110 57.188L109.915 46.444C109.83 35.224 109.152 31.96 104.916 22.304C100.594 12.58 91.1039 0 88.1382 0C87.545 0 86.0198 0.816 84.8335 1.836ZM1.36956 32.912C1.87797 39.304 3.91161 45.628 7.72468 52.7C8.91097 54.944 10.0125 56.848 10.0973 56.984C10.3515 57.324 61.2772 57.528 61.2772 57.188C61.2772 56.44 56.1084 51.476 50.3464 46.716C38.7377 37.06 19.8418 28.832 5.94525 27.268L0.861149 26.724L1.36956 32.912ZM169.568 27.2C157.79 28.832 140.589 35.7 130.167 43.044C126.777 45.424 114.66 56.372 114.66 57.052C114.66 57.256 126.015 57.392 139.827 57.324L165.078 57.188L167.026 54.4C171.094 48.756 174.144 40.188 174.568 33.116C174.822 29.444 174.737 26.588 174.314 26.588C173.89 26.656 171.772 26.928 169.568 27.2ZM14.6729 63.852C14.6729 64.124 15.4356 65.212 16.4524 66.232L18.2318 68L88.1382 67.864L158.045 67.66L160.248 65.416L162.366 63.24H88.4771C47.5501 63.24 14.6729 63.512 14.6729 63.852ZM26.1969 75.616C27.0443 76.5 28.4 77.52 29.0779 77.996C30.7726 79.084 143.216 79.288 146.182 78.132C147.283 77.724 148.808 76.704 149.656 75.752L151.181 74.12H24.5869L26.1969 75.616ZM42.6355 85.816C47.6349 89.216 68.7339 95.88 74.5806 95.88C75.4279 95.88 75.6821 94.656 75.6821 91.188C75.6821 83.776 77.1226 84.32 57.5488 84.32L40.5171 84.388L42.6355 85.816ZM79.241 87.176C80.2578 88.808 82.6304 91.528 84.4098 93.364C88.3076 97.104 88.3076 97.104 93.8154 90.848C99.8316 83.98 100.171 84.32 87.884 84.32H77.2921L79.241 87.176ZM100.764 86.428C100.509 87.584 100.255 90.236 100.255 92.276V96.016L103.475 95.608C112.881 94.248 127.455 89.42 133.302 85.68L135.42 84.32H101.357L100.764 86.428ZM58.6504 103.836C58.6504 104.176 58.6504 106.352 58.7351 108.732L58.8199 113.084L56.4473 112.608C55.1763 112.336 53.3968 111.996 52.6342 111.792C51.3632 111.52 51.109 111.86 51.109 114.172C51.109 116.484 51.4479 117.028 53.0579 117.3C55.7694 117.912 58.3115 120.972 58.3115 123.896C58.3115 126.548 56.1931 128.928 53.0579 129.948C51.4479 130.424 51.109 131.036 51.109 133.212V135.932L54.6679 134.912C57.0404 134.232 58.3962 134.164 58.5657 134.64C58.7351 134.98 60.3451 135.32 62.2093 135.32H65.5139V103.36H62.1245C60.2604 103.36 58.7351 103.564 58.6504 103.836ZM104.492 108.188C104.492 112.88 104.407 113.016 102.628 112.608C96.4422 111.248 96.8659 111.112 96.8659 114.104C96.8659 116.212 97.2896 116.96 98.3911 117.232C103.814 118.66 105.848 124.848 102.035 128.112C100.933 129.064 99.3232 130.016 98.3911 130.288C97.2896 130.56 96.8659 131.308 96.8659 133.348C96.8659 134.776 97.0353 136 97.2896 136C97.5438 136 99.1537 135.524 100.933 134.98C102.967 134.3 104.153 134.164 104.323 134.64C104.492 134.98 106.102 135.32 107.966 135.32H111.271V103.36H104.492V108.188ZM8.06362 112.948C3.23373 114.852 -0.0709355 119.34 0.0137995 123.76C0.0985344 128.928 3.57267 132.872 9.84306 134.98L12.9783 136V132.94C12.9783 131.24 12.5546 129.88 12.1309 129.88C11.6225 129.88 10.2667 129.132 9.16518 128.18C7.55521 126.956 7.0468 125.8 7.0468 123.692C7.0468 121.312 7.55521 120.496 10.0125 118.592C12.3004 116.892 12.9783 115.804 12.9783 113.968C12.9783 112.608 12.724 111.52 12.3851 111.52C11.9614 111.52 10.0973 112.2 8.06362 112.948ZM16.3676 114.172C16.3676 116.28 16.7066 116.96 17.7234 116.96C18.4013 116.96 20.1807 117.844 21.5365 118.932C25.858 122.468 24.1633 128.996 18.5708 130.152C16.8761 130.492 16.6219 130.9 16.8761 132.736C16.9608 133.96 17.1303 135.184 17.1303 135.456C17.215 135.728 18.825 135.456 20.7739 134.912C23.1464 134.232 24.5022 134.164 24.6717 134.64C24.8411 134.98 26.2816 135.32 27.8916 135.32H30.7726V111.52H27.8069C26.1969 111.52 24.8411 111.86 24.8411 112.268C24.8411 112.744 23.9938 112.88 22.7228 112.608C21.5365 112.404 19.6723 111.996 18.486 111.792C16.4524 111.384 16.3676 111.52 16.3676 114.172ZM42.6355 112.812C33.2299 116.824 31.3657 126.684 39.0766 132.464C40.6866 133.62 43.2286 134.912 44.6691 135.184C47.2112 135.728 47.2959 135.66 47.5501 133.348C47.8043 131.648 47.3806 130.696 46.2791 130.084C42.805 128.044 41.7881 127.092 41.2797 125.46C40.5171 122.876 41.6187 120.36 44.5844 118.048C46.7875 116.348 47.2112 115.464 47.0417 113.696C46.7028 111.18 46.5333 111.112 42.6355 112.812ZM69.6659 122.4C69.5812 128.384 69.4965 133.688 69.4117 134.096C69.327 134.64 70.6828 135.048 72.9706 135.184L76.5295 135.388V111.52H69.7507L69.6659 122.4ZM88.4771 112.744C86.8671 113.356 84.4098 115.056 82.9693 116.484C80.6815 118.796 80.4273 119.544 80.4273 123.692C80.512 126.752 81.0204 128.86 81.9525 130.016C83.5625 131.988 88.6466 134.912 91.6123 135.66C93.307 136.068 93.4765 135.864 93.4765 133.484C93.4765 131.376 92.9681 130.56 90.5108 128.996C86.8671 126.684 85.9351 123.488 87.9687 120.36C88.7313 119.136 90.0871 117.98 91.0192 117.844C92.2902 117.572 92.6291 116.892 92.6291 114.512C92.6291 112.88 92.3749 111.52 92.036 111.52C91.6123 111.52 90.0871 112.064 88.4771 112.744ZM121.27 113.492C115.423 116.484 113.05 121.04 114.491 126.344C115.847 130.968 119.744 134.028 126.354 135.66C128.048 136.068 128.218 135.864 128.218 133.348C128.218 130.968 127.879 130.424 125.591 129.54C122.541 128.248 120.592 124.916 121.185 122.196C121.608 120.564 125.76 116.96 127.286 116.96C127.625 116.96 127.879 115.736 127.879 114.24C127.879 110.84 126.693 110.704 121.27 113.492ZM131.607 114.24C131.607 116.552 131.946 117.096 133.726 117.64C136.522 118.456 138.555 122.264 137.793 125.12C137.539 126.412 136.183 127.976 134.488 129.064C132.116 130.56 131.607 131.376 131.607 133.484V136L134.742 134.98C136.776 134.3 138.047 134.164 138.217 134.64C138.386 134.98 139.996 135.32 141.86 135.32H145.165V111.52H142.707C141.352 111.52 139.657 111.996 138.979 112.54C137.793 113.424 137.369 113.424 135.251 112.54C131.861 111.112 131.607 111.18 131.607 114.24ZM154.909 112.472C149.402 114.376 147.537 120.36 151.52 123.352C153.723 124.984 158.807 126.48 162.281 126.48C165.078 126.48 167.45 127.976 167.026 129.608C166.857 130.628 165.925 130.968 162.281 131.104C158.299 131.308 157.79 131.172 156.858 129.608C156.096 128.112 155.333 127.84 152.198 127.84C148.046 127.84 147.792 128.384 150.249 131.58C152.367 134.368 156.18 135.66 162.112 135.66C170.246 135.66 175.161 132.804 174.992 128.248C174.822 123.964 171.348 121.652 163.468 120.7C155.926 119.748 154.147 116.348 161.095 116.076C163.891 116.008 164.908 116.28 166.01 117.504C166.942 118.592 168.128 119 170.67 119C174.483 119 174.737 118.388 172.195 115.464C168.891 111.792 160.841 110.432 154.909 112.472Z" fill="black"/>
</g>
<defs>
<clipPath id="clip0_1338_11">
<rect width="175" height="136" fill="white"/>
</clipPath>
</defs>
</svg>
